<?xml version="1.0" encoding="UTF-8" standalone="no"?>
<!-- Created with Vectornator (http://vectornator.io/) -->

<svg
   height="176.48407"
   stroke-miterlimit="10"
   style="clip-rule:evenodd;fill-rule:nonzero;stroke-linecap:round;stroke-linejoin:round"
   version="1.1"
   viewBox="0 0 728.20118 176.48408"
   width="728.20117"
   xml:space="preserve"
   id="svg119"
   sodipodi:docname="modular.svg"
   inkscape:version="1.2.1 (9c6d41e4, 2022-07-14)"
   xmlns:inkscape="http://www.inkscape.org/namespaces/inkscape"
   xmlns:sodipodi="http://sodipodi.sourceforge.net/DTD/sodipodi-0.dtd"
   xmlns="http://www.w3.org/2000/svg"
   xmlns:svg="http://www.w3.org/2000/svg"
   xmlns:vectornator="http://vectornator.io"><sodipodi:namedview
   id="namedview121"
   pagecolor="#ffffff"
   bordercolor="#999999"
   borderopacity="1"
   inkscape:showpageshadow="0"
   inkscape:pageopacity="1"
   inkscape:pagecheckerboard="0"
   inkscape:deskcolor="#d1d1d1"
   showgrid="false"
   inkscape:zoom="1.121204"
   inkscape:cx="375.93516"
   inkscape:cy="300.1238"
   inkscape:window-width="2560"
   inkscape:window-height="987"
   inkscape:window-x="0"
   inkscape:window-y="25"
   inkscape:window-maximized="0"
   inkscape:current-layer="svg119" />
<defs
   id="defs9">




















































<clipPath
   clipPathUnits="userSpaceOnUse"
   id="clipPath337"><g
     id="g341"><rect
       height="595.34998"
       width="841.995"
       x="0"
       y="0"
       id="rect339" /></g></clipPath><clipPath
   clipPathUnits="userSpaceOnUse"
   id="clipPath343"><g
     id="g347"><rect
       height="595.34998"
       width="841.995"
       x="0"
       y="0"
       id="rect345" /></g></clipPath><clipPath
   clipPathUnits="userSpaceOnUse"
   id="clipPath349"><g
     id="g353"><rect
       height="595.34998"
       width="841.995"
       x="0"
       y="0"
       id="rect351" /></g></clipPath><clipPath
   clipPathUnits="userSpaceOnUse"
   id="clipPath355"><g
     id="g359"><rect
       height="595.34998"
       width="841.995"
       x="0"
       y="0"
       id="rect357" /></g></clipPath><clipPath
   clipPathUnits="userSpaceOnUse"
   id="clipPath361"><g
     id="g365"><rect
       height="595.34998"
       width="841.995"
       x="0"
       y="0"
       id="rect363" /></g></clipPath><clipPath
   clipPathUnits="userSpaceOnUse"
   id="clipPath367"><g
     id="g371"><rect
       height="595.34998"
       width="841.995"
       x="0"
       y="0"
       id="rect369" /></g></clipPath><clipPath
   clipPathUnits="userSpaceOnUse"
   id="clipPath373"><g
     id="g377"><rect
       height="595.34998"
       width="841.995"
       x="0"
       y="0"
       id="rect375" /></g></clipPath><clipPath
   clipPathUnits="userSpaceOnUse"
   id="clipPath379"><g
     id="g383"><rect
       height="595.34998"
       width="841.995"
       x="0"
       y="0"
       id="rect381" /></g></clipPath><clipPath
   clipPathUnits="userSpaceOnUse"
   id="clipPath385"><g
     id="g389"><rect
       height="595.34998"
       width="841.995"
       x="0"
       y="0"
       id="rect387" /></g></clipPath><clipPath
   clipPathUnits="userSpaceOnUse"
   id="clipPath391"><g
     id="g395"><rect
       height="595.34998"
       width="841.995"
       x="0"
       y="0"
       id="rect393" /></g></clipPath><clipPath
   clipPathUnits="userSpaceOnUse"
   id="clipPath397"><g
     id="g401"><rect
       height="595.34998"
       width="841.995"
       x="0"
       y="0"
       id="rect399" /></g></clipPath><clipPath
   clipPathUnits="userSpaceOnUse"
   id="clipPath403"><g
     id="g407"><rect
       height="595.34998"
       width="841.995"
       x="0"
       y="0"
       id="rect405" /></g></clipPath><clipPath
   clipPathUnits="userSpaceOnUse"
   id="clipPath409"><g
     id="g413"><rect
       height="595.34998"
       width="841.995"
       x="0"
       y="0"
       id="rect411" /></g></clipPath><clipPath
   clipPathUnits="userSpaceOnUse"
   id="clipPath415"><g
     id="g419"><rect
       height="595.34998"
       width="841.995"
       x="0"
       y="0"
       id="rect417" /></g></clipPath><clipPath
   clipPathUnits="userSpaceOnUse"
   id="clipPath421"><g
     id="g425"><rect
       height="595.34998"
       width="841.995"
       x="0"
       y="0"
       id="rect423" /></g></clipPath><clipPath
   clipPathUnits="userSpaceOnUse"
   id="clipPath427"><g
     id="g431"><rect
       height="595.34998"
       width="841.995"
       x="0"
       y="0"
       id="rect429" /></g></clipPath><clipPath
   clipPathUnits="userSpaceOnUse"
   id="clipPath433"><g
     id="g437"><rect
       height="595.34998"
       width="841.995"
       x="0"
       y="0"
       id="rect435" /></g></clipPath><clipPath
   clipPathUnits="userSpaceOnUse"
   id="clipPath439"><g
     id="g443"><rect
       height="595.34998"
       width="841.995"
       x="0"
       y="0"
       id="rect441" /></g></clipPath><clipPath
   clipPathUnits="userSpaceOnUse"
   id="clipPath445"><g
     id="g449"><rect
       height="595.34998"
       width="841.995"
       x="0"
       y="0"
       id="rect447" /></g></clipPath><clipPath
   clipPathUnits="userSpaceOnUse"
   id="clipPath451"><g
     id="g455"><rect
       height="595.34998"
       width="841.995"
       x="0"
       y="0"
       id="rect453" /></g></clipPath><clipPath
   clipPathUnits="userSpaceOnUse"
   id="clipPath457"><g
     id="g461"><rect
       height="595.34998"
       width="841.995"
       x="0"
       y="0"
       id="rect459" /></g></clipPath><clipPath
   clipPathUnits="userSpaceOnUse"
   id="clipPath463"><g
     id="g467"><rect
       height="595.34998"
       width="841.995"
       x="0"
       y="0"
       id="rect465" /></g></clipPath><clipPath
   clipPathUnits="userSpaceOnUse"
   id="clipPath469"><g
     id="g473"><rect
       height="595.34998"
       width="841.995"
       x="0"
       y="0"
       id="rect471" /></g></clipPath><clipPath
   clipPathUnits="userSpaceOnUse"
   id="clipPath475"><g
     id="g479"><rect
       height="595.34998"
       width="841.995"
       x="0"
       y="0"
       id="rect477" /></g></clipPath><clipPath
   clipPathUnits="userSpaceOnUse"
   id="clipPath481"><g
     id="g485"><rect
       height="595.34998"
       width="841.995"
       x="0"
       y="0"
       id="rect483" /></g></clipPath><clipPath
   clipPathUnits="userSpaceOnUse"
   id="clipPath487"><g
     id="g491"><rect
       height="595.34998"
       width="841.995"
       x="0"
       y="0"
       id="rect489" /></g></clipPath><clipPath
   clipPathUnits="userSpaceOnUse"
   id="clipPath493"><g
     id="g497"><rect
       height="595.34998"
       width="841.995"
       x="0"
       y="0"
       id="rect495" /></g></clipPath><clipPath
   clipPathUnits="userSpaceOnUse"
   id="clipPath499"><g
     id="g503"><rect
       height="595.34998"
       width="841.995"
       x="0"
       y="0"
       id="rect501" /></g></clipPath><clipPath
   clipPathUnits="userSpaceOnUse"
   id="clipPath505"><g
     id="g509"><rect
       height="595.34998"
       width="841.995"
       x="0"
       y="0"
       id="rect507" /></g></clipPath><clipPath
   clipPathUnits="userSpaceOnUse"
   id="clipPath511"><g
     id="g515"><rect
       height="595.34998"
       width="841.995"
       x="0"
       y="0"
       id="rect513" /></g></clipPath><clipPath
   clipPathUnits="userSpaceOnUse"
   id="clipPath517"><g
     id="g521"><rect
       height="595.34998"
       width="841.995"
       x="0"
       y="0"
       id="rect519" /></g></clipPath><clipPath
   clipPathUnits="userSpaceOnUse"
   id="clipPath523"><g
     id="g527"><rect
       height="595.34998"
       width="841.995"
       x="0"
       y="0"
       id="rect525" /></g></clipPath><clipPath
   clipPathUnits="userSpaceOnUse"
   id="clipPath529"><g
     id="g533"><rect
       height="595.34998"
       width="841.995"
       x="0"
       y="0"
       id="rect531" /></g></clipPath><clipPath
   clipPathUnits="userSpaceOnUse"
   id="clipPath535"><g
     id="g539"><rect
       height="595.34998"
       width="841.995"
       x="0"
       y="0"
       id="rect537" /></g></clipPath><clipPath
   clipPathUnits="userSpaceOnUse"
   id="clipPath541"><g
     id="g545"><rect
       height="595.34998"
       width="841.995"
       x="0"
       y="0"
       id="rect543" /></g></clipPath><clipPath
   clipPathUnits="userSpaceOnUse"
   id="clipPath547"><g
     id="g551"><rect
       height="595.34998"
       width="841.995"
       x="0"
       y="0"
       id="rect549" /></g></clipPath><clipPath
   clipPathUnits="userSpaceOnUse"
   id="clipPath553"><g
     id="g557"><rect
       height="595.34998"
       width="841.995"
       x="0"
       y="0"
       id="rect555" /></g></clipPath><clipPath
   clipPathUnits="userSpaceOnUse"
   id="clipPath559"><g
     id="g563"><rect
       height="595.34998"
       width="841.995"
       x="0"
       y="0"
       id="rect561" /></g></clipPath><clipPath
   clipPathUnits="userSpaceOnUse"
   id="clipPath565"><g
     id="g569"><rect
       height="595.34998"
       width="841.995"
       x="0"
       y="0"
       id="rect567" /></g></clipPath><clipPath
   clipPathUnits="userSpaceOnUse"
   id="clipPath571"><g
     id="g575"><rect
       height="595.34998"
       width="841.995"
       x="0"
       y="0"
       id="rect573" /></g></clipPath><clipPath
   clipPathUnits="userSpaceOnUse"
   id="clipPath577"><g
     id="g581"><rect
       height="595.34998"
       width="841.995"
       x="0"
       y="0"
       id="rect579" /></g></clipPath><clipPath
   clipPathUnits="userSpaceOnUse"
   id="clipPath583"><g
     id="g587"><rect
       height="595.34998"
       width="841.995"
       x="0"
       y="0"
       id="rect585" /></g></clipPath><clipPath
   clipPathUnits="userSpaceOnUse"
   id="clipPath589"><g
     id="g593"><rect
       height="595.34998"
       width="841.995"
       x="0"
       y="0"
       id="rect591" /></g></clipPath><clipPath
   clipPathUnits="userSpaceOnUse"
   id="clipPath595"><g
     id="g599"><rect
       height="595.34998"
       width="841.995"
       x="0"
       y="0"
       id="rect597" /></g></clipPath><clipPath
   clipPathUnits="userSpaceOnUse"
   id="clipPath601"><g
     id="g605"><rect
       height="595.34998"
       width="841.995"
       x="0"
       y="0"
       id="rect603" /></g></clipPath><clipPath
   clipPathUnits="userSpaceOnUse"
   id="clipPath607"><g
     id="g611"><rect
       height="595.34998"
       width="841.995"
       x="0"
       y="0"
       id="rect609" /></g></clipPath><clipPath
   clipPathUnits="userSpaceOnUse"
   id="clipPath613"><g
     id="g617"><rect
       height="595.34998"
       width="841.995"
       x="0"
       y="0"
       id="rect615" /></g></clipPath><clipPath
   clipPathUnits="userSpaceOnUse"
   id="clipPath619"><g
     id="g623"><rect
       height="595.34998"
       width="841.995"
       x="0"
       y="0"
       id="rect621" /></g></clipPath><clipPath
   clipPathUnits="userSpaceOnUse"
   id="clipPath625"><g
     id="g629"><rect
       height="595.34998"
       width="841.995"
       x="0"
       y="0"
       id="rect627" /></g></clipPath><clipPath
   clipPathUnits="userSpaceOnUse"
   id="clipPath631"><g
     id="g635"><rect
       height="595.34998"
       width="841.995"
       x="0"
       y="0"
       id="rect633" /></g></clipPath><clipPath
   clipPathUnits="userSpaceOnUse"
   id="clipPath637"><g
     id="g641"><rect
       height="595.34998"
       width="841.995"
       x="0"
       y="0"
       id="rect639" /></g></clipPath><clipPath
   clipPathUnits="userSpaceOnUse"
   id="clipPath643"><g
     id="g647"><rect
       height="595.34998"
       width="841.995"
       x="0"
       y="0"
       id="rect645" /></g></clipPath></defs>

<path
   d="m 121.857,28.7217 c 0,-8.1742 7.087,-14.8007 15.829,-14.8007 8.742,0 15.829,6.6265 15.829,14.8007 0,8.1742 -7.087,14.8007 -15.829,14.8007 -8.742,0 -15.829,-6.6265 -15.829,-14.8007 z"
   fill="none"
   opacity="1"
   stroke="#000002"
   stroke-linecap="butt"
   stroke-linejoin="round"
   stroke-width="1.64827"
   vectornator:layerName="Oval 1"
   id="path14"
   clip-path="url(#clipPath643)"
   transform="translate(-56.896965,-9.291065)" /><path
   d="m 196.889,93.6803 c 0,-8.1742 7.086,-14.8007 15.828,-14.8007 8.742,0 15.829,6.6265 15.829,14.8007 0,8.1737 -7.087,14.8007 -15.829,14.8007 -8.742,0 -15.828,-6.627 -15.828,-14.8007 z"
   fill="none"
   opacity="1"
   stroke="#000002"
   stroke-linecap="butt"
   stroke-linejoin="round"
   stroke-width="1.64827"
   vectornator:layerName="Oval 2"
   id="path16"
   clip-path="url(#clipPath637)"
   transform="translate(-56.896965,-9.291065)" /><path
   d="m 57.7211,93.6803 c 0,-8.1742 7.0867,-14.8007 15.8285,-14.8007 8.7419,0 15.8286,6.6265 15.8286,14.8007 0,8.1737 -7.0867,14.8007 -15.8286,14.8007 -8.7418,0 -15.8285,-6.627 -15.8285,-14.8007 z"
   fill="none"
   opacity="1"
   stroke="#000002"
   stroke-linecap="butt"
   stroke-linejoin="round"
   stroke-width="1.64827"
   vectornator:layerName="Oval 3"
   id="path18"
   clip-path="url(#clipPath631)"
   transform="translate(-56.896965,-9.291065)" /><path
   d="m 121.857,170.151 c 0,-8.175 7.087,-14.801 15.829,-14.801 8.742,0 15.829,6.626 15.829,14.801 0,8.174 -7.087,14.8 -15.829,14.8 -8.742,0 -15.829,-6.626 -15.829,-14.8 z"
   fill="none"
   opacity="1"
   stroke="#000002"
   stroke-linecap="butt"
   stroke-linejoin="round"
   stroke-width="1.64827"
   vectornator:layerName="Oval 4"
   id="path20"
   clip-path="url(#clipPath625)"
   transform="translate(-56.896965,-9.291065)" /><path
   d="m 150.529,160.035 52.506,-51.554"
   fill="none"
   opacity="1"
   stroke="#000002"
   stroke-linecap="butt"
   stroke-linejoin="round"
   stroke-width="1.64827"
   vectornator:layerName="Line 1"
   id="path22"
   clip-path="url(#clipPath619)"
   transform="translate(-56.896965,-9.291065)" /><path
   d="M 80.8781,82.6452 125.288,37.7666"
   fill="none"
   opacity="1"
   stroke="#000002"
   stroke-linecap="butt"
   stroke-linejoin="round"
   stroke-width="1.64827"
   vectornator:layerName="Line 2"
   id="path24"
   clip-path="url(#clipPath613)"
   transform="translate(-56.896965,-9.291065)" /><path
   d="m 153.515,37.7666 49.52,44.8786"
   fill="none"
   opacity="1"
   stroke="#000002"
   stroke-linecap="butt"
   stroke-linejoin="round"
   stroke-width="1.64827"
   vectornator:layerName="Line 3"
   id="path26"
   clip-path="url(#clipPath607)"
   transform="translate(-56.896965,-9.291065)" /><path
   d="M 83.3784,105.267 129.693,155.35"
   fill="none"
   opacity="1"
   stroke="#000002"
   stroke-linecap="butt"
   stroke-linejoin="round"
   stroke-width="1.64827"
   vectornator:layerName="Line 4"
   id="path28"
   clip-path="url(#clipPath601)"
   transform="translate(-56.896965,-9.291065)" /><path
   d="M 140.885,43.5224 137.686,155.35"
   fill="none"
   opacity="1"
   stroke="#000002"
   stroke-linecap="butt"
   stroke-linejoin="round"
   stroke-width="1.64827"
   vectornator:layerName="Line 5"
   id="path30"
   clip-path="url(#clipPath595)"
   transform="translate(-56.896965,-9.291065)" /><path
   d="M 89.3782,93.6803 H 196.889"
   fill="none"
   opacity="1"
   stroke="#000002"
   stroke-linecap="butt"
   stroke-linejoin="round"
   stroke-width="1.64827"
   vectornator:layerName="Line 6"
   id="path32"
   clip-path="url(#clipPath589)"
   transform="translate(-56.896965,-9.291065)" /><path
   d="m 384.678,24.9159 c 0,-8.1742 7.087,-14.8007 15.829,-14.8007 8.742,0 15.828,6.6265 15.828,14.8007 0,8.1742 -7.086,14.8007 -15.828,14.8007 -8.742,0 -15.829,-6.6265 -15.829,-14.8007 z"
   fill="none"
   opacity="1"
   stroke="#000002"
   stroke-linecap="butt"
   stroke-linejoin="round"
   stroke-width="1.64827"
   vectornator:layerName="Oval 5"
   id="path34"
   clip-path="url(#clipPath583)"
   transform="translate(-56.896965,-9.291065)" /><path
   d="m 459.71,89.8745 c 0,-8.1742 7.086,-14.8007 15.828,-14.8007 8.742,0 15.829,6.6265 15.829,14.8007 0,8.1742 -7.087,14.8005 -15.829,14.8005 -8.742,0 -15.828,-6.6263 -15.828,-14.8005 z"
   fill="none"
   opacity="1"
   stroke="#000002"
   stroke-linecap="butt"
   stroke-linejoin="round"
   stroke-width="1.64827"
   vectornator:layerName="Oval 6"
   id="path36"
   clip-path="url(#clipPath577)"
   transform="translate(-56.896965,-9.291065)" /><path
   d="m 320.542,89.8745 c 0,-8.1742 7.087,-14.8007 15.828,-14.8007 8.742,0 15.829,6.6265 15.829,14.8007 0,8.1742 -7.087,14.8005 -15.829,14.8005 -8.741,0 -15.828,-6.6263 -15.828,-14.8005 z"
   fill="none"
   opacity="1"
   stroke="#000002"
   stroke-linecap="butt"
   stroke-linejoin="round"
   stroke-width="1.64827"
   vectornator:layerName="Oval 7"
   id="path38"
   clip-path="url(#clipPath571)"
   transform="translate(-56.896965,-9.291065)" /><path
   d="m 384.678,166.345 c 0,-8.174 7.087,-14.801 15.829,-14.801 8.742,0 15.828,6.627 15.828,14.801 0,8.174 -7.086,14.8 -15.828,14.8 -8.742,0 -15.829,-6.626 -15.829,-14.8 z"
   fill="none"
   opacity="1"
   stroke="#000002"
   stroke-linecap="butt"
   stroke-linejoin="round"
   stroke-width="1.64827"
   vectornator:layerName="Oval 8"
   id="path40"
   clip-path="url(#clipPath565)"
   transform="translate(-56.896965,-9.291065)" /><path
   d="m 413.35,156.229 52.505,-51.554"
   fill="none"
   opacity="1"
   stroke="#000002"
   stroke-linecap="butt"
   stroke-linejoin="round"
   stroke-width="1.64827"
   vectornator:layerName="Line 7"
   id="path42"
   clip-path="url(#clipPath559)"
   transform="translate(-56.896965,-9.291065)" /><path
   d="m 343.699,78.8394 44.41,-44.8787"
   fill="none"
   opacity="1"
   stroke="#000002"
   stroke-linecap="butt"
   stroke-linejoin="round"
   stroke-width="1.64827"
   vectornator:layerName="Line 8"
   id="path44"
   clip-path="url(#clipPath553)"
   transform="translate(-56.896965,-9.291065)" /><path
   d="m 416.335,33.9607 49.52,44.8787"
   fill="none"
   opacity="1"
   stroke="#000002"
   stroke-linecap="butt"
   stroke-linejoin="round"
   stroke-width="1.64827"
   vectornator:layerName="Line 9"
   id="path46"
   clip-path="url(#clipPath547)"
   transform="translate(-56.896965,-9.291065)" /><path
   d="m 346.199,101.461 46.315,50.083"
   fill="none"
   opacity="1"
   stroke="#000002"
   stroke-linecap="butt"
   stroke-linejoin="round"
   stroke-width="1.64827"
   vectornator:layerName="Line 10"
   id="path48"
   clip-path="url(#clipPath541)"
   transform="translate(-56.896965,-9.291065)" /><path
   d="M 403.706,39.7166 400.507,151.544"
   fill="none"
   opacity="1"
   stroke="#000002"
   stroke-linecap="butt"
   stroke-linejoin="round"
   stroke-width="1.64827"
   vectornator:layerName="Line 11"
   id="path50"
   clip-path="url(#clipPath535)"
   transform="translate(-56.896965,-9.291065)" /><path
   d="M 352.199,89.8745 H 459.71"
   fill="none"
   opacity="1"
   stroke="#000002"
   stroke-linecap="butt"
   stroke-linejoin="round"
   stroke-width="1.64827"
   vectornator:layerName="Line 12"
   id="path52"
   clip-path="url(#clipPath529)"
   transform="translate(-56.896965,-9.291065)" /><path
   d="m 72.0827,89.8173 c 0.0143,-0.1177 0.0286,-0.4467 -0.0442,-0.353 -0.0966,0.1243 0.551,3.5188 0.5889,3.7511 0.3292,2.0206 0.0286,4.0504 0.2802,6.0607 0.1097,0.8769 0.5467,3.2939 -0.728,2.3019"
   fill="none"
   opacity="1"
   stroke="#000002"
   stroke-linecap="round"
   stroke-linejoin="round"
   stroke-width="1.64827"
   vectornator:layerName="Curve 1"
   id="path54"
   clip-path="url(#clipPath523)"
   transform="translate(-56.896965,-9.291065)" /><path
   d="m 132.901,25.7868 c -0.812,-2.4358 5.402,-3.7736 7.164,-3.5533 0.749,0.0936 1.986,0.2586 2.121,1.2035 0.397,2.7829 -3.563,4.5759 -5.388,5.7312 -1.302,0.8248 -2.472,1.7835 -3.668,2.7509 -0.26,0.2107 -0.78,0.6084 -1.031,0.8597 -0.053,0.0531 -1.778,1.6608 -1.548,1.8912 0.041,0.0406 0.115,0 0.172,0 1.047,0 2.443,-0.6268 3.496,-0.8023 2.685,-0.4475 5.357,-0.877 8.081,-0.9743 1.01,-0.0361 2.027,0 3.038,0 0.114,0 0.344,0.1146 0.344,0 0,-0.1025 -0.708,-0.0573 -0.745,-0.0573"
   fill="none"
   opacity="1"
   stroke="#000002"
   stroke-linecap="round"
   stroke-linejoin="round"
   stroke-width="1.64827"
   vectornator:layerName="Curve 2"
   id="path56"
   clip-path="url(#clipPath517)"
   transform="translate(-56.896965,-9.291065)" /><path
   d="m 134.587,167.336 c 0,-2.376 5.915,-2.654 6.46,-0.747 0.488,1.708 -2.029,2.614 -3.164,3.208 -0.047,0.025 -1.43,0.887 -1.363,0.484 0.079,-0.475 1.639,-0.701 1.978,-0.747 1.253,-0.171 4.232,-0.489 4.351,1.406 0.165,2.644 -4.006,4.846 -6.285,4.966 -0.696,0.037 -3.624,-0.835 -1.67,-0.835"
   fill="none"
   opacity="1"
   stroke="#000002"
   stroke-linecap="round"
   stroke-linejoin="round"
   stroke-width="1.64827"
   vectornator:layerName="Curve 3"
   id="path58"
   clip-path="url(#clipPath511)"
   transform="translate(-56.896965,-9.291065)" /><path
   d="m 210.232,86.5644 c -0.042,-0.0841 -0.068,-0.368 -0.068,-0.2739 0,1.154 -0.106,2.2187 -0.343,3.3552 -0.27,1.2985 -0.747,2.5832 -1.164,3.8344 -0.036,0.1083 -0.095,0.2791 0,0.3424 0.872,0.5809 6.409,-1.1102 7.532,-1.3694 0.023,-0.0054 3.972,-0.719 3.218,-0.3424"
   fill="none"
   opacity="1"
   stroke="#000002"
   stroke-linecap="round"
   stroke-linejoin="round"
   stroke-width="1.64827"
   vectornator:layerName="Curve 4"
   id="path60"
   clip-path="url(#clipPath505)"
   transform="translate(-56.896965,-9.291065)" /><path
   d="m 215.217,87.1503 c 0,-0.2513 -0.405,-0.1587 -0.375,-0.0375 0.04,0.1589 0.637,0.3886 0.75,0.7503 0.245,0.7815 0.123,1.6719 0.15,2.4761 0.09,2.5862 0.143,4.6856 -0.75,7.1657 -0.243,0.6756 -0.395,1.353 -0.45,2.0634 -0.013,0.1694 0.112,0.9727 0.112,0.7507"
   fill="none"
   opacity="1"
   stroke="#000002"
   stroke-linecap="round"
   stroke-linejoin="round"
   stroke-width="1.64827"
   vectornator:layerName="Curve 5"
   id="path62"
   clip-path="url(#clipPath499)"
   transform="translate(-56.896965,-9.291065)" /><path
   d="m 329.857,84.6877 c 2.669,0.516 6.159,-0.3538 8.764,-0.9025 0.53,-0.1115 1.042,-0.3 1.575,-0.3948 0.118,-0.0211 2.435,-0.3904 1.674,0.1239"
   fill="none"
   opacity="1"
   stroke="#000002"
   stroke-linecap="round"
   stroke-linejoin="round"
   stroke-width="1.64827"
   vectornator:layerName="Curve 6"
   id="path64"
   clip-path="url(#clipPath493)"
   transform="translate(-56.896965,-9.291065)" /><path
   d="m 330.264,85.166 c -0.432,-0.0836 0.921,1.8122 0.957,2.2825 0.094,1.2468 -0.488,2.0802 -1.27,2.9509 -0.049,0.0544 -0.153,0.1035 -0.133,0.1739 0.038,0.1353 1.276,-0.5935 1.419,-0.6245 0.741,-0.161 1.606,-0.353 2.363,-0.3422 3.156,0.045 7.272,0.4832 8.182,4.1787 0.892,3.6213 -3.739,4.2949 -6.375,4.5608 -0.323,0.0325 -2.725,0.354 -2.867,-0.1547 -0.201,-0.72 1.538,-0.5018 1.882,-0.4352"
   fill="none"
   opacity="1"
   stroke="#000002"
   stroke-linecap="round"
   stroke-linejoin="round"
   stroke-width="1.64827"
   vectornator:layerName="Curve 7"
   id="path66"
   clip-path="url(#clipPath487)"
   transform="translate(-56.896965,-9.291065)" /><path
   d="m 401.432,17.2195 c -1.499,-2.2178 -3.4,2.3591 -3.903,3.1409 -1.862,2.8949 -2.777,6.2763 -3.266,9.6568 -0.155,1.0776 -0.351,3.1827 0.852,3.8603 1.443,0.8121 3.465,-0.1179 4.746,-0.7805 0.978,-0.5058 1.815,-1.096 2.565,-1.9014 1.36,-1.4613 1.807,-5.1729 -1.091,-5.2051 -1.326,-0.0148 -2.675,0.6372 -3.898,1.0444 -0.737,0.2455 -2.508,0.3058 -2.453,1.3236"
   fill="none"
   opacity="1"
   stroke="#000002"
   stroke-linecap="round"
   stroke-linejoin="round"
   stroke-width="1.64827"
   vectornator:layerName="Curve 8"
   id="path68"
   clip-path="url(#clipPath481)"
   transform="translate(-56.896965,-9.291065)" /><path
   d="m 394.913,164.087 c -0.282,-0.054 0.182,-2.058 1.006,-2.103 0.863,-0.046 1.605,0.745 2.411,0.966 1.483,0.407 3.051,0.527 4.581,0.586 0.108,0.004 2.545,0.325 1.63,-0.684 -2.267,-2.502 -2.676,4.796 -2.831,5.346 -0.135,0.479 -0.73,1.903 -0.947,2.314 -0.321,0.608 -3.543,4.009 -2.512,4.209"
   fill="none"
   opacity="1"
   stroke="#000002"
   stroke-linecap="round"
   stroke-linejoin="round"
   stroke-width="1.64827"
   vectornator:layerName="Curve 9"
   id="path70"
   clip-path="url(#clipPath475)"
   transform="translate(-56.896965,-9.291065)" /><path
   d="m 478.871,86.5252 c 4.573,-6.8596 -8.563,-8.1019 -9.676,-3.0929 -0.404,1.8192 2.877,2.0821 3.966,2.2999 1.364,0.2728 2.725,0.6932 4.124,0.793 2.785,0.199 3.974,-0.1032 4.52,3.1723 0.125,0.752 -0.261,1.5734 -0.555,2.2206 -0.62,1.3636 -1.379,2.6509 -2.696,3.4895 -3.454,2.1979 -6.662,-0.5976 -6.662,-4.1239 0,-0.761 0.379,-1.5518 0.714,-2.2206 0.874,-1.7482 1.541,-1.2246 2.775,-2.4586"
   fill="none"
   opacity="1"
   stroke="#000002"
   stroke-linecap="round"
   stroke-linejoin="round"
   stroke-width="1.64827"
   vectornator:layerName="Curve 10"
   id="path72"
   clip-path="url(#clipPath469)"
   transform="translate(-56.896965,-9.291065)" /><path
   d="m 677.586,24.9159 c 0,-8.1742 7.086,-14.8007 15.828,-14.8007 8.742,0 15.829,6.6265 15.829,14.8007 0,8.1742 -7.087,14.8007 -15.829,14.8007 -8.742,0 -15.828,-6.6265 -15.828,-14.8007 z"
   fill="none"
   opacity="1"
   stroke="#000002"
   stroke-linecap="butt"
   stroke-linejoin="round"
   stroke-width="1.64827"
   vectornator:layerName="Oval 9"
   id="path74"
   clip-path="url(#clipPath463)"
   transform="translate(-56.896965,-9.291065)" /><path
   d="m 752.617,89.8745 c 0,-8.1742 7.087,-14.8007 15.828,-14.8007 8.742,0 15.829,6.6265 15.829,14.8007 0,8.1742 -7.087,14.8005 -15.829,14.8005 -8.741,0 -15.828,-6.6263 -15.828,-14.8005 z"
   fill="none"
   opacity="1"
   stroke="#000002"
   stroke-linecap="butt"
   stroke-linejoin="round"
   stroke-width="1.64827"
   vectornator:layerName="Oval 10"
   id="path76"
   clip-path="url(#clipPath457)"
   transform="translate(-56.896965,-9.291065)" /><path
   d="m 613.449,89.8745 c 0,-8.1742 7.087,-14.8007 15.829,-14.8007 8.742,0 15.828,6.6265 15.828,14.8007 0,8.1742 -7.086,14.8005 -15.828,14.8005 -8.742,0 -15.829,-6.6263 -15.829,-14.8005 z"
   fill="none"
   opacity="1"
   stroke="#000002"
   stroke-linecap="butt"
   stroke-linejoin="round"
   stroke-width="1.64827"
   vectornator:layerName="Oval 11"
   id="path78"
   clip-path="url(#clipPath451)"
   transform="translate(-56.896965,-9.291065)" /><path
   d="m 677.586,166.345 c 0,-8.174 7.086,-14.801 15.828,-14.801 8.742,0 15.829,6.627 15.829,14.801 0,8.174 -7.087,14.8 -15.829,14.8 -8.742,0 -15.828,-6.626 -15.828,-14.8 z"
   fill="none"
   opacity="1"
   stroke="#000002"
   stroke-linecap="butt"
   stroke-linejoin="round"
   stroke-width="1.64827"
   vectornator:layerName="Oval 12"
   id="path80"
   clip-path="url(#clipPath445)"
   transform="translate(-56.896965,-9.291065)" /><path
   d="m 706.257,156.229 52.506,-51.554"
   fill="none"
   opacity="1"
   stroke="#000002"
   stroke-linecap="butt"
   stroke-linejoin="round"
   stroke-width="1.64827"
   vectornator:layerName="Line 13"
   id="path82"
   clip-path="url(#clipPath439)"
   transform="translate(-56.896965,-9.291065)" /><path
   d="m 636.606,78.8394 44.41,-44.8787"
   fill="none"
   opacity="1"
   stroke="#000002"
   stroke-linecap="butt"
   stroke-linejoin="round"
   stroke-width="1.64827"
   vectornator:layerName="Line 14"
   id="path84"
   clip-path="url(#clipPath433)"
   transform="translate(-56.896965,-9.291065)" /><path
   d="m 709.243,33.9607 49.52,44.8787"
   fill="none"
   opacity="1"
   stroke="#000002"
   stroke-linecap="butt"
   stroke-linejoin="round"
   stroke-width="1.64827"
   vectornator:layerName="Line 15"
   id="path86"
   clip-path="url(#clipPath427)"
   transform="translate(-56.896965,-9.291065)" /><path
   d="m 639.106,101.461 46.315,50.083"
   fill="none"
   opacity="1"
   stroke="#000002"
   stroke-linecap="butt"
   stroke-linejoin="round"
   stroke-width="1.64827"
   vectornator:layerName="Line 16"
   id="path88"
   clip-path="url(#clipPath421)"
   transform="translate(-56.896965,-9.291065)" /><path
   d="M 696.613,39.7166 693.414,151.544"
   fill="none"
   opacity="1"
   stroke="#000002"
   stroke-linecap="butt"
   stroke-linejoin="round"
   stroke-width="1.64827"
   vectornator:layerName="Line 17"
   id="path90"
   clip-path="url(#clipPath415)"
   transform="translate(-56.896965,-9.291065)" /><path
   d="M 645.106,89.8745 H 752.617"
   fill="none"
   opacity="1"
   stroke="#000002"
   stroke-linecap="butt"
   stroke-linejoin="round"
   stroke-width="1.64827"
   vectornator:layerName="Line 18"
   id="path92"
   clip-path="url(#clipPath409)"
   transform="translate(-56.896965,-9.291065)" /><path
   d="m -32.702,124.677 c -0.9753,-1.951 -1.9821,-3.49 -2.3163,-5.662 -0.3278,-2.131 -0.2573,-0.888 -0.2573,-2.831 0,-0.172 0.1715,-0.515 0,-0.515 -1.1806,0 -2.5737,2.882 -2.5737,3.861"
   fill="none"
   opacity="1"
   stroke="#000002"
   stroke-linecap="round"
   stroke-linejoin="round"
   stroke-width="1.64827"
   vectornator:layerName="Curve 13"
   id="path94"
   clip-path="url(#clipPath403)"
   transform="translate(-56.896965,-9.291065)" /><path
   d="m 172.15,729.309 c 1.119,-2.589 1.6,-4.164 -0.72,-6.484 -0.76,-0.759 -1.922,-1.921 -2.882,-1.441 -0.859,0.43 0,1.921 0,2.882 0,0.961 -0.646,2.171 0,2.882 1.204,1.324 3.329,2.793 3.602,2.161 z"
   fill="none"
   opacity="1"
   stroke="#000002"
   stroke-linecap="round"
   stroke-linejoin="round"
   stroke-width="1.64827"
   vectornator:layerName="Curve 24"
   id="path96"
   clip-path="url(#clipPath397)"
   transform="translate(-56.896965,-9.291065)" /><path
   d="m -62.4786,-74.4802 c -1.5489,0.7745 1.6573,3.0982 2.8818,4.3228"
   fill="none"
   opacity="1"
   stroke="#000002"
   stroke-linecap="round"
   stroke-linejoin="round"
   stroke-width="1.64827"
   vectornator:layerName="Curve 25"
   id="path98"
   clip-path="url(#clipPath391)"
   transform="translate(-56.896965,-9.291065)" /><path
   d="m 228.546,93.6803 91.996,-1.8606"
   fill="none"
   opacity="1"
   stroke="#000002"
   stroke-linecap="butt"
   stroke-linejoin="round"
   stroke-width="1.64827"
   vectornator:layerName="Line 19"
   id="path100"
   clip-path="url(#clipPath385)"
   transform="translate(-56.896965,-9.291065)" /><path
   d="m 491.367,89.4477 122.082,0.6597"
   fill="none"
   opacity="1"
   stroke="#000002"
   stroke-linecap="butt"
   stroke-linejoin="round"
   stroke-width="1.64827"
   vectornator:layerName="Line 20"
   id="path102"
   clip-path="url(#clipPath379)"
   transform="translate(-56.896965,-9.291065)" /><path
   d="m 629.279,88.5843 c 2.659,-0.886 3.717,-10.8124 -2.069,-5.9909 -0.77,0.642 -1.432,1.1639 -2.07,1.9607 -0.675,0.844 -1.139,1.6714 -1.416,2.7231 -0.221,0.8417 -0.763,2.9946 -0.109,3.8124 1,1.2495 5.682,-3.8112 6.318,-4.5749 0.472,-0.5658 0.519,-0.5215 0.763,-1.0892 0.087,-0.203 0.108,-0.8744 0.108,-0.6536 0,1.6148 -0.714,3.3063 -0.98,4.9017 -0.47,2.8223 -0.653,5.9949 -0.653,8.8229"
   fill="none"
   opacity="1"
   stroke="#000002"
   stroke-linecap="round"
   stroke-linejoin="round"
   stroke-width="1.64827"
   vectornator:layerName="Curve 26"
   id="path104"
   clip-path="url(#clipPath373)"
   transform="translate(-56.896965,-9.291065)" /><path
   d="m 688.845,21.2551 c 0,-1.1012 -0.126,2.3376 -0.09,2.7742 0.108,1.2924 0.362,2.6308 0.269,3.9374 -0.009,0.1239 -0.379,1.0969 -0.179,1.1634 0.077,0.0257 0.626,-0.5782 0.626,-0.6264 0,-0.1194 -0.251,0.0533 -0.358,0"
   fill="none"
   opacity="1"
   stroke="#000002"
   stroke-linecap="round"
   stroke-linejoin="round"
   stroke-width="1.64827"
   vectornator:layerName="Curve 27"
   id="path106"
   clip-path="url(#clipPath367)"
   transform="translate(-56.896965,-9.291065)" /><path
   d="m 696.272,20.1365 c 0.142,-1.3252 -1.27,0.4562 -1.342,1.0291 -0.172,1.3777 -1.471,8.6051 1.879,8.2329 3.559,-0.3953 3.58,-4.9219 2.685,-7.6064 -0.123,-0.3678 -0.897,-2.0885 -1.253,-2.1477 -1.074,-0.179 -1.984,0.6335 -1.969,0.4921 z"
   fill="none"
   opacity="1"
   stroke="#000002"
   stroke-linecap="round"
   stroke-linejoin="round"
   stroke-width="1.64827"
   vectornator:layerName="Curve 28"
   id="path108"
   clip-path="url(#clipPath361)"
   transform="translate(-56.896965,-9.291065)" /><path
   d="m 692.066,161.483 c 0,-0.035 -0.201,-0.76 -0.358,-0.448 -0.414,0.829 0.329,2.878 0.448,3.669 0.377,2.512 -0.434,3.885 -0.985,6.086 -0.074,0.298 0.739,-0.709 0.448,-0.806"
   fill="none"
   opacity="1"
   stroke="#000002"
   stroke-linecap="round"
   stroke-linejoin="round"
   stroke-width="1.64827"
   vectornator:layerName="Curve 29"
   id="path110"
   clip-path="url(#clipPath355)"
   transform="translate(-56.896965,-9.291065)" /><path
   d="m 697.436,162.109 c -0.216,-0.216 -0.059,3.237 -0.09,3.848 -0.082,1.636 -0.272,3.282 -0.358,4.922 -0.017,0.329 -0.048,0.658 -0.089,0.984 -0.019,0.148 0.105,0.553 0,0.448 -0.221,-0.221 -0.14,-1.332 0,-1.611"
   fill="none"
   opacity="1"
   stroke="#000002"
   stroke-linecap="round"
   stroke-linejoin="round"
   stroke-width="1.64827"
   vectornator:layerName="Curve 30"
   id="path112"
   clip-path="url(#clipPath349)"
   transform="translate(-56.896965,-9.291065)" /><path
   d="m 765.178,85.3285 c -0.105,-0.1054 -0.135,-0.4246 -0.268,-0.3579 -0.309,0.1542 -0.081,2.0334 -0.09,2.2372 -0.071,1.7125 -0.464,3.3968 -0.626,5.1008 -0.04,0.4157 0,0.8352 0,1.2528 0,0.2549 -0.269,0.9708 -0.269,0.7159 0,-0.4669 0.627,-0.727 0.627,-1.2528"
   fill="none"
   opacity="1"
   stroke="#000002"
   stroke-linecap="round"
   stroke-linejoin="round"
   stroke-width="1.64827"
   vectornator:layerName="Curve 31"
   id="path114"
   clip-path="url(#clipPath343)"
   transform="translate(-56.896965,-9.291065)" /><path
   d="m 769.294,86.4919 c -1.271,0 4.117,-3.9064 4.117,-0.8949 0,2.4927 -3.223,4.778 -4.564,6.6221 -0.065,0.0894 -1.019,1.4862 -0.895,1.6108 0.302,0.302 0.736,-0.5369 1.164,-0.5369 1.47,0 3.009,-0.2248 4.474,-0.358 0.475,-0.0432 1.204,-0.5126 0.716,-0.2684"
   fill="none"
   opacity="1"
   stroke="#000002"
   stroke-linecap="round"
   stroke-linejoin="round"
   stroke-width="1.64827"
   vectornator:layerName="Curve 32"
   id="path116"
   clip-path="url(#clipPath337)"
   transform="translate(-56.896965,-9.291065)" />


</svg>
